<svg id="Layer_1" data-name="Layer 1" xmlns="http://www.w3.org/2000/svg" viewBox="0 0 508.02 508.02">
  <defs>
    <style>
      .cls-1 {
        fill: #fff;
      }
    </style>
  </defs>
  <title>edit-white</title>
  <g>
    <path class="cls-1" d="M175.8,266.43l-23.2,77a10.21,10.21,0,0,0,12,12l77-23.2a26.15,26.15,0,0,0,13-6.9l246-246a25.41,25.41,0,0,0,0-35.9l-36-36a25.41,25.41,0,0,0-35.9,0l-246,246A25.45,25.45,0,0,0,175.8,266.43Z" transform="translate(0 -0.01)"/>
    <path class="cls-1" d="M482.6,254a25.44,25.44,0,0,0-25.4,25.4v177.8H50.8V50.83H228.6a25.4,25.4,0,1,0,0-50.8H25.4A25.44,25.44,0,0,0,0,25.43v457.2A25.44,25.44,0,0,0,25.4,508H482.6a25.44,25.44,0,0,0,25.4-25.4V279.43A25.44,25.44,0,0,0,482.6,254Z" transform="translate(0 -0.01)"/>
  </g>
</svg>
