<svg id="Layer_1" data-name="Layer 1" xmlns="http://www.w3.org/2000/svg" viewBox="0 0 508.03 508.03">
  <defs>
    <style>
      .cls-1 {
        fill: #2117dc;
      }
    </style>
  </defs>
  <title>edit</title>
  <g>
    <path class="cls-1" d="M177.8,268.4l-23.2,77a10.21,10.21,0,0,0,12,12l77-23.2a26.15,26.15,0,0,0,13-6.9l246-246a25.41,25.41,0,0,0,0-35.9l-36-36a25.41,25.41,0,0,0-35.9,0l-246,246A25.39,25.39,0,0,0,177.8,268.4Z" transform="translate(-2 -1.97)"/>
    <path class="cls-1" d="M484.6,256a25.44,25.44,0,0,0-25.4,25.4V459.2H52.8V52.8H230.6a25.4,25.4,0,1,0,0-50.8H27.4A25.44,25.44,0,0,0,2,27.4V484.6A25.44,25.44,0,0,0,27.4,510H484.6A25.44,25.44,0,0,0,510,484.6V281.4A25.44,25.44,0,0,0,484.6,256Z" transform="translate(-2 -1.97)"/>
  </g>
</svg>
