<?xml version="1.0" encoding="utf-8"?>
<!-- Generator: Adobe Illustrator 23.0.2, SVG Export Plug-In . SVG Version: 6.00 Build 0)  -->
<svg version="1.1" id="Text" xmlns="http://www.w3.org/2000/svg" xmlns:xlink="http://www.w3.org/1999/xlink" x="0px" y="0px"
	 viewBox="0 0 87.1 88.1" style="enable-background:new 0 0 87.1 88.1;" xml:space="preserve">
<style type="text/css">
	.st0{fill:none;}
	.st1{fill:#2117DC;}
	.st2{fill:#FFFFFF;}
</style>
<path class="st0" d="M50.6,44.8c-0.1,0.1-0.1,0.1-0.2,0.2c-0.1,0.1-0.2,0.2-0.3,0.2l-0.1,0c0,0-0.1,0.1-0.1,0.1c0,0,0,0,0,0
	c0.9,1.1,1.3,2.5,1.3,3.9c0,1.3-0.4,2.5-1.1,3.5c2.3,1.4,3.9,3.6,4.6,6.1h8.5v-6.3H66v11.8h1.4V53.1c0-0.2,0-0.5,0-0.8l0.3-0.1
	l-0.3,0c0-0.2,0-0.5-0.1-0.7l0-0.1c0-0.2-0.1-0.5-0.1-0.7l0-0.1c0-0.2-0.1-0.4-0.2-0.7l0-0.1c-0.1-0.2-0.1-0.4-0.2-0.6l0-0.1
	c-0.1-0.2-0.2-0.4-0.3-0.6l0-0.1c-0.1-0.2-0.2-0.4-0.3-0.6l0-0.1c-0.1-0.2-0.2-0.4-0.4-0.6l0-0.1c-0.1-0.2-0.3-0.4-0.4-0.6l0-0.1
	c-0.1-0.2-0.3-0.4-0.4-0.5l0-0.1c-0.2-0.2-0.3-0.3-0.5-0.5l0,0c-0.2-0.2-0.4-0.3-0.5-0.5l0.2-0.2l-0.2,0.2c-0.4-0.3-0.8-0.6-1.2-0.9
	c-0.2-0.1-0.4-0.3-0.7-0.4l0,0c-0.2-0.1-0.4-0.2-0.6-0.3c-0.3,0.2-0.6,0.3-0.9,0.5c-0.3,0.2-0.7,0.3-1,0.4l-0.1,0
	c-0.1,0-0.3,0.1-0.4,0.1l-0.1,0c-0.2,0-0.3,0.1-0.5,0.1l-0.1,0c-0.1,0-0.3,0-0.4,0l-0.1,0c-0.3,0-0.7,0-1,0c0,0-0.1,0-0.1,0
	c-0.1,0-0.3,0-0.4,0l-0.1,0c-0.2,0-0.3-0.1-0.5-0.1l-0.1,0c-0.1,0-0.2-0.1-0.4-0.1l-0.1,0c-0.2,0-0.3-0.1-0.5-0.2l0,0
	c-0.2-0.1-0.3-0.1-0.5-0.2l-0.1,0c-0.3-0.1-0.6-0.3-0.8-0.5c-0.1,0-0.1,0.1-0.2,0.1l0,0c-0.1,0-0.2,0.1-0.3,0.2
	c-0.1,0-0.2,0.1-0.3,0.1c-0.1,0.1-0.2,0.1-0.3,0.2c-0.1,0-0.2,0.1-0.2,0.1c-0.1,0.1-0.2,0.1-0.3,0.2c-0.1,0.1-0.2,0.1-0.2,0.2
	C50.8,44.7,50.7,44.8,50.6,44.8z"/>
<path class="st0" d="M52.6,39.6L52.6,39.6c0.1,0.2,0.2,0.3,0.3,0.4c0,0,0.1,0.1,0.1,0.1c0.1,0.1,0.1,0.1,0.2,0.2
	c0.2,0.2,0.4,0.4,0.6,0.5l0,0c0.1,0.1,0.2,0.2,0.3,0.2l0.1,0c0.3,0.2,0.6,0.3,0.9,0.4c0.1,0,0.2,0.1,0.3,0.1c0,0,0.1,0,0.1,0l0,0
	c0.1,0,0.2,0.1,0.3,0.1c0.1,0,0.1,0,0.2,0c0.1,0,0.2,0,0.3,0.1l0.1,0c0,0,0.1,0,0.1,0c0.4,0,0.6,0,1,0c0,0,0.1,0,0.1,0l0,0
	c0.1,0,0.2,0,0.3,0c0.1,0,0.1,0,0.2,0c0.1,0,0.2,0,0.3-0.1l0,0c0.1,0,0.1,0,0.2,0c0.1,0,0.1,0,0.2-0.1l0,0c0.5-0.2,0.9-0.4,1.3-0.7
	l0,0c0.2-0.2,0.4-0.4,0.6-0.6c0.1-0.1,0.1-0.1,0.2-0.2c0,0,0.1-0.1,0.1-0.1c0.1-0.1,0.2-0.2,0.2-0.3l0.1-0.1
	c0.1-0.1,0.2-0.3,0.2-0.4l0.3,0.1l-0.2-0.1c0.2-0.3,0.3-0.6,0.4-0.9c0.1-0.2,0.1-0.3,0.1-0.5l0-0.1c0-0.2,0.1-0.3,0.1-0.5l0-0.1
	c0-0.2,0-0.3,0-0.5c0-2.9-2.3-5.2-5.2-5.2c-2.9,0-5.2,2.3-5.2,5.2c0,0.2,0,0.3,0,0.5l0,0.1c0,0.2,0,0.3,0.1,0.5l0,0.1
	c0,0.2,0.1,0.3,0.1,0.5c0.1,0.3,0.2,0.6,0.4,0.9l-0.2,0.2l0,0l0.2-0.1C52.4,39.4,52.5,39.5,52.6,39.6z"/>
<path class="st0" d="M47,43.4c0.1,0,0.2,0.1,0.3,0.1c0.2-0.2,0.6-0.3,0.9-0.4c0.1,0,0.1-0.1,0.2-0.1l0.2-0.2c0.1,0,0.1-0.1,0.2-0.1
	c0.1-0.1,0.3-0.2,0.4-0.3l0.1-0.1c0,0,0.1-0.1,0.1-0.1c0.2-0.2,0.5-0.3,0.7-0.5c0.1-0.1,0.3-0.2,0.4-0.2c0-0.1-0.1-0.1-0.1-0.2l0,0
	c0,0-0.1-0.1-0.1-0.1c-0.1-0.1-0.2-0.3-0.3-0.4c0-0.1-0.1-0.1-0.1-0.2c-0.1-0.1-0.1-0.3-0.2-0.4c0-0.1-0.1-0.2-0.1-0.2
	c0-0.1-0.1-0.2-0.1-0.3c0-0.1-0.1-0.2-0.1-0.3c0-0.1-0.1-0.2-0.1-0.4l0-0.1c0,0,0-0.1,0-0.1c0-0.2-0.1-0.3-0.1-0.5
	c0-0.1,0-0.1,0-0.2c0-0.2-0.1-0.4-0.1-0.6l0-0.1c0-0.2,0-0.4,0-0.6c0-4.4,3.6-8,8-8c4.4,0,8,3.6,8,8c0,0.2,0,0.4,0,0.6l0,0.1
	c0,0.2,0,0.4-0.1,0.6c0,0.1,0,0.1,0,0.2c0,0.2-0.1,0.4-0.1,0.5c0,0,0,0.1,0,0.1l0,0.1c0,0.1-0.1,0.3-0.1,0.4c0,0.1-0.1,0.2-0.1,0.3
	c0,0.1-0.1,0.2-0.1,0.4c0,0.1-0.1,0.2-0.1,0.2c-0.1,0.1-0.1,0.3-0.2,0.4c0,0.1-0.1,0.1-0.1,0.2c-0.1,0.1-0.2,0.3-0.3,0.4
	c0,0-0.1,0.1-0.1,0.1l0,0c0,0.1-0.1,0.1-0.1,0.2c0,0,0,0,0,0c0.1,0,0.1,0.1,0.2,0.1l0.1,0c0.1,0,0.1,0.1,0.2,0.1
	c0.1,0,0.1,0.1,0.2,0.1l0.1,0c0.1,0,0.1,0.1,0.2,0.1c0.1,0,0.1,0.1,0.2,0.1l0,0c0.1,0.1,0.2,0.1,0.3,0.2l0,0c0.1,0,0.1,0.1,0.2,0.1
	c0,0,0.1,0.1,0.1,0.1l0.1,0.1c0.1,0,0.1,0.1,0.2,0.1c0,0,0.1,0.1,0.1,0.1l0,0c0.1,0.1,0.1,0.1,0.2,0.2c0.1,0.1,0.1,0.1,0.2,0.2
	c0.1,0.1,0.1,0.1,0.2,0.2c0.1,0.1,0.1,0.1,0.2,0.2c0.1,0.1,0.1,0.1,0.2,0.2c0.1,0.1,0.1,0.1,0.2,0.2c0.1,0.1,0.1,0.1,0.2,0.2
	c0.1,0.1,0.1,0.1,0.2,0.2c0,0.1,0.1,0.1,0.1,0.2l0.1,0.1c0,0,0.1,0.1,0.1,0.1c0.1,0.1,0.1,0.1,0.2,0.2l0,0.1c0,0,0.1,0.1,0.1,0.1
	c0.1,0.1,0.2,0.2,0.3,0.3c0,0,0.1,0.1,0.1,0.1l0,0.1c0.1,0.1,0.1,0.2,0.2,0.2c0,0,0.1,0.1,0.1,0.1l0,0c0,0.1,0.1,0.1,0.1,0.2
	c0,0.1,0.1,0.1,0.1,0.2c0,0.1,0.1,0.1,0.1,0.2c0,0.1,0.1,0.1,0.1,0.2c0,0.1,0.1,0.1,0.1,0.2l0.1,0.2c0,0.1,0.1,0.2,0.1,0.2
	c0,0.1,0.1,0.1,0.1,0.2c0,0.1,0.1,0.2,0.1,0.3l0.1,0.2c0,0.1,0.1,0.2,0.1,0.3l0.1,0.2c0.1,0.1,0.1,0.3,0.2,0.4l0,0.1
	c0,0.1,0.1,0.2,0.1,0.3c0,0,0,0.1,0,0.1l0,0c0,0.1,0.1,0.2,0.1,0.3c0,0.1,0,0.1,0,0.2l0,0c0,0.1,0,0.2,0.1,0.3c0,0.1,0,0.1,0,0.2
	c0,0.1,0,0.2,0,0.3l0,0.2c0,0.1,0,0.2,0,0.3c0,0.1,0,0.1,0,0.2c0,0.1,0,0.2,0,0.3l0,0.2c0,0.1,0,0.2,0,0.3l0,0.2c0,0.2,0,0.3,0,0.5
	v12.8c0,0.8-0.6,1.4-1.4,1.4h-1.3l2.1,11.1c0.1,0.4,0,0.8-0.3,1.1c-0.3,0.3-0.7,0.5-1.1,0.5h-3.6v5.8h15.9V37.1l-37-28.3l-37,28.3
	v48.8h14.3v-16h-3.1c-0.8,0-1.4-0.6-1.4-1.4V50c0-0.2,0-0.4,0-0.5l0-0.2c0-0.1,0-0.2,0-0.4c0-0.1,0-0.1,0-0.2l0-0.1
	c0-0.1,0-0.2,0-0.3c0-0.1,0-0.1,0-0.2c0-0.1,0-0.2,0-0.3c0-0.1,0-0.1,0-0.2c0-0.1,0-0.2,0.1-0.3c0-0.1,0-0.1,0-0.2
	c0-0.1,0-0.2,0.1-0.3c0-0.1,0-0.1,0-0.2c0-0.1,0.1-0.2,0.1-0.3l0.1-0.2c0-0.1,0.1-0.2,0.1-0.3l0.1-0.2c0.1-0.2,0.1-0.3,0.2-0.5
	c0.1-0.2,0.1-0.3,0.2-0.5l0.1-0.2c0-0.1,0.1-0.2,0.1-0.3l0.1-0.2c0-0.1,0.1-0.2,0.1-0.3c0-0.1,0.1-0.1,0.1-0.2
	c0-0.1,0.1-0.2,0.1-0.3l0.1-0.2c0-0.1,0.1-0.2,0.2-0.3c0-0.1,0.1-0.1,0.1-0.2c0.1-0.1,0.1-0.2,0.2-0.3c0-0.1,0.1-0.1,0.1-0.2
	c0.1-0.1,0.1-0.2,0.2-0.3l0.1-0.2c0.1-0.1,0.1-0.2,0.2-0.3l0.1-0.1c0.1-0.1,0.2-0.3,0.3-0.4c0.1-0.1,0.2-0.3,0.3-0.4l0.1-0.1
	c0.1-0.1,0.2-0.2,0.2-0.3l0.1-0.1c0.1-0.1,0.1-0.2,0.2-0.2l0.2-0.1c0.1-0.1,0.2-0.1,0.2-0.2c0.1,0,0.1-0.1,0.2-0.1
	c0.1-0.1,0.2-0.1,0.2-0.2c0.1,0,0.1-0.1,0.2-0.1c0.1-0.1,0.2-0.1,0.2-0.2l0.2-0.1c0.1-0.1,0.2-0.1,0.3-0.2l0.2-0.1
	c0.1-0.1,0.2-0.1,0.3-0.2l0.1-0.1c0.1-0.1,0.3-0.2,0.4-0.3l0,0c0.2-0.1,0.3-0.2,0.5-0.3l0.1-0.1c0,0-0.1-0.1-0.1-0.1l0-0.1
	c-0.1-0.1-0.2-0.2-0.2-0.3c-0.6-0.9-1.1-2-1.3-3.1l0-0.1c0-0.1,0-0.2-0.1-0.3l0-0.1c0-0.1,0-0.2,0-0.3l0-0.1c0-0.1,0-0.2,0-0.3
	l0-0.1c0-0.1,0-0.3,0-0.4c0-4.8,3.9-8.6,8.6-8.6c4.7,0,8.6,3.9,8.6,8.6c0,0.1,0,0.3,0,0.4l0,0.1c0,0.1,0,0.2,0,0.3l0,0.1
	c0,0.1,0,0.2,0,0.3l0,0.1c0,0.1,0,0.2-0.1,0.3l0,0c-0.2,1.1-0.7,2.1-1.3,3.1c-0.1,0.1-0.1,0.2-0.2,0.3l-0.1,0.1c0,0-0.1,0.1-0.1,0.1
	l0.1,0.1c0.2,0.1,0.4,0.2,0.6,0.3l0.1,0.1c0.2,0.1,0.3,0.2,0.5,0.3c0.1,0,0.1,0.1,0.2,0.1c0.1,0.1,0.3,0.2,0.4,0.3l0.1,0.1
	c0.2,0.1,0.3,0.3,0.5,0.4l0.1,0.1c0.1,0.1,0.3,0.3,0.4,0.4l0.1,0.1c0.1,0.1,0.2,0.2,0.4,0.4l0.1,0.1c0.2,0.2,0.3,0.3,0.4,0.5l0,0
	c0.1,0.2,0.3,0.3,0.4,0.5l0.1,0.1c0.1,0.1,0.2,0.3,0.3,0.4l0.1,0.1c0.3,0.4,0.5,0.7,0.7,1.1l0.1,0.2c0.1,0,0.2-0.1,0.3-0.1
	C44.7,42.9,45.9,43,47,43.4L47,43.4z"/>
<path class="st0" d="M53.7,75.7H52v1.6h14.6l-1.9-10h0c-0.8,0-1.4-0.6-1.4-1.4v-4.2h-8.2v12.6C55.1,75.1,54.5,75.7,53.7,75.7z"/>
<rect x="52" y="80.1" class="st0" width="3.6" height="5.8"/>
<rect x="58.3" y="80.1" class="st0" width="3.6" height="5.8"/>
<path class="st0" d="M32.5,37.7L32.5,37.7c0.6-0.2,1.2-0.5,1.7-0.9l0,0c0.4-0.3,0.8-0.7,1.2-1.2c0.1-0.1,0.1-0.2,0.2-0.2l0.1-0.1
	c0,0,0.1-0.1,0.1-0.1c0,0,0.1-0.1,0.1-0.1l0.1-0.1c0-0.1,0.1-0.1,0.1-0.2l0-0.1c0.1-0.2,0.2-0.5,0.3-0.7l0-0.1c0-0.1,0-0.1,0.1-0.2
	l0-0.1c0-0.1,0-0.1,0-0.2c0,0,0-0.1,0-0.1c0-0.1,0-0.1,0-0.2c0-0.1,0-0.1,0-0.2l0-0.1c0-0.1,0-0.1,0-0.2l0-0.1c0-0.1,0-0.2,0-0.3
	c0-3.2-2.6-5.8-5.8-5.8c-3.2,0-5.8,2.6-5.8,5.8c0,0.1,0,0.2,0,0.3l0,0.1c0,0.1,0,0.1,0,0.2l0,0.1c0,0.1,0,0.1,0,0.2c0,0,0,0.1,0,0.2
	c0,0,0,0.1,0,0.1c0,0.1,0,0.1,0,0.2c0,0,0,0.1,0,0.1c0,0.1,0,0.1,0.1,0.2l0,0.1c0.1,0.2,0.2,0.4,0.3,0.6l0,0.1c0,0,0,0.1,0.1,0.1
	l0,0.1c0,0,0,0.1,0.1,0.1c0,0,0,0.1,0.1,0.1c0,0.1,0.1,0.1,0.1,0.2l0.1,0.1c0,0.1,0.1,0.1,0.2,0.2c0.3,0.5,0.7,0.9,1.2,1.2l0,0
	c0.5,0.4,1.1,0.7,1.7,0.9l-0.1,0.3l0.1-0.3c0.1,0,0.3,0.1,0.4,0.1l0,0.3l0,0l0.1-0.3c0.1,0,0.3,0.1,0.4,0.1l0.1,0
	c0.1,0,0.3,0,0.4,0.1l0.1,0c0.3,0,0.6,0,0.9,0l0.1,0c0.1,0,0.3,0,0.4-0.1l0.1,0c0.1,0,0.3,0,0.4-0.1l0.1,0.3l0,0L32,37.8
	C32.2,37.8,32.3,37.7,32.5,37.7z"/>
<path class="st0" d="M51.2,73h1.1V61.7c0-2.9-1.7-5.6-4.3-6.8c-1,0.6-2.1,0.8-3.2,0.8c-1.1,0-2.2-0.3-3.2-0.8
	c-2.6,1.2-4.3,3.9-4.3,6.8V73h1.1V61.3h2.8v13c0,0.5-0.3,1-0.7,1.2v10.3h3V70.7h2.8v15.2h3V75.6c-0.4-0.2-0.7-0.7-0.7-1.2v-13h2.8
	V73z"/>
<path class="st0" d="M42.6,52.2c1.3,1,3.1,1,4.3,0c0.9-0.7,1.4-1.7,1.4-2.8c0-1.1-0.5-2.2-1.4-2.9c-0.1-0.1-0.2-0.1-0.3-0.2l0,0
	c-0.1,0-0.2-0.1-0.2-0.1c-0.6-0.3-1.1-0.4-1.7-0.4c-0.2,0-0.5,0-0.7,0.1l-0.1,0c-0.1,0-0.1,0-0.2,0.1l-0.1,0
	c-0.2,0.1-0.3,0.1-0.4,0.2l0,0c-1.2,0.6-1.9,1.8-1.9,3.2C41.2,50.5,41.7,51.5,42.6,52.2z"/>
<path class="st0" d="M84.8,33.7c-0.1-0.4-0.3-0.7-0.6-0.9c0,0-0.1,0-0.1-0.1L44.3,2.4c-0.4-0.3-1-0.3-1.5,0L3,32.7
	c0,0-0.1,0-0.1,0.1c-0.3,0.2-0.5,0.5-0.6,0.9c-0.1,0.4,0,0.8,0.2,1.1c0.4,0.6,1.3,0.8,1.9,0.5L42.7,5.9c0.5-0.4,1.2-0.4,1.7,0
	l38.3,29.3c0.6,0.4,1.5,0.2,1.9-0.5l0,0C84.8,34.4,84.9,34.1,84.8,33.7z"/>
<path class="st0" d="M27.6,40.2C27.4,40.1,27.2,40,27,40c-0.3-0.2-0.7-0.3-1-0.5l-0.1,0c-0.1,0-0.1,0.1-0.2,0.1l-0.2,0.1
	c-0.1,0-0.1,0.1-0.2,0.1c0,0-0.1,0-0.1,0.1l-0.1,0.1c-0.1,0-0.1,0.1-0.2,0.1c0,0-0.1,0-0.1,0.1l-0.1,0.1c0,0-0.1,0.1-0.1,0.1
	c0,0-0.1,0.1-0.1,0.1l-0.1,0.1c0,0-0.1,0.1-0.1,0.1c-0.1,0-0.1,0.1-0.2,0.1l0,0c-0.1,0.1-0.2,0.1-0.2,0.2l0,0
	c-0.1,0-0.1,0.1-0.2,0.1L23.4,41c-0.1,0-0.1,0.1-0.2,0.1l-0.2,0.2c0,0-0.1,0.1-0.1,0.1l-0.2,0.2c0,0-0.1,0.1-0.1,0.1
	c0,0-0.1,0.1-0.1,0.1l-0.1,0.1c0,0-0.1,0.1-0.1,0.1l-0.1,0.1c-0.1,0.1-0.1,0.1-0.2,0.2c0,0-0.1,0.1-0.1,0.1
	c-0.1,0.1-0.1,0.1-0.2,0.2c0,0-0.1,0.1-0.1,0.1l0,0c0,0.1-0.1,0.1-0.1,0.2c0,0.1-0.1,0.1-0.1,0.2c0,0.1-0.1,0.1-0.1,0.2
	c0,0.1-0.1,0.1-0.1,0.2c0,0.1-0.1,0.1-0.1,0.2c0,0.1-0.1,0.1-0.1,0.2c0,0.1-0.1,0.1-0.1,0.2l-0.1,0.2c0,0.1-0.1,0.1-0.1,0.2
	c0,0.1-0.1,0.1-0.1,0.2c0,0.1-0.1,0.1-0.1,0.2c0,0.1-0.1,0.1-0.1,0.2c0,0.1-0.1,0.1-0.1,0.2c0,0.1-0.1,0.1-0.1,0.2
	c0,0.1-0.1,0.1-0.1,0.2l-0.1,0.2c0,0.1-0.1,0.1-0.1,0.2c0,0.1,0,0.1-0.1,0.2c0,0.1-0.1,0.1-0.1,0.2c0,0.1,0,0.1-0.1,0.2
	c0,0.1,0,0.1-0.1,0.2l0,0.1c0,0.1,0,0.1,0,0.2c0,0.1,0,0.1-0.1,0.2l-0.1,0.2c0,0.1,0,0.2-0.1,0.2l0,0c0,0.1,0,0.1,0,0.2
	c0,0.1,0,0.1,0,0.2l0,0.1c0,0,0,0.1,0,0.1c0,0.1,0,0.1,0,0.2l0,0.1c0,0,0,0.1,0,0.1c0,0.1,0,0.1,0,0.2l0,0.2c0,0.1,0,0.2,0,0.3
	l0,0.2c0,0.1,0,0.3,0,0.4v17.1h1.8V49.6h2.8v36.2h5.6V61.3H32v24.6h5.6V75.7h-1.7c-0.8,0-1.4-0.6-1.4-1.4V61.7c0-3.6,1.9-6.9,5-8.8
	c-0.7-1-1.1-2.2-1.1-3.5c0-1.9,0.8-3.7,2.3-4.9c0,0,0,0,0,0l-0.1-0.1c-0.1-0.1-0.1-0.2-0.2-0.4c0,0,0-0.1-0.1-0.1l0-0.1
	c-0.1-0.1-0.1-0.2-0.2-0.3c0,0-0.1-0.1-0.1-0.1l0-0.1c-0.1-0.1-0.1-0.2-0.2-0.3c0,0-0.1-0.1-0.1-0.1l0,0c-0.1-0.1-0.1-0.2-0.2-0.3
	c0,0-0.1-0.1-0.1-0.1l0,0c-0.1-0.1-0.2-0.2-0.2-0.3C39,42.1,38.9,42,38.9,42c-0.1-0.1-0.2-0.2-0.2-0.2c-0.1-0.1-0.1-0.1-0.2-0.2
	c-0.1-0.1-0.2-0.2-0.3-0.2c-0.1-0.1-0.1-0.1-0.2-0.2c-0.1-0.1-0.2-0.1-0.3-0.2c-0.1,0-0.1-0.1-0.2-0.1c-0.1-0.1-0.2-0.1-0.3-0.2l0,0
	c0,0-0.1-0.1-0.1-0.1c-0.1-0.1-0.2-0.1-0.3-0.2l0,0c0,0-0.1-0.1-0.1-0.1c-0.1-0.1-0.2-0.1-0.3-0.2l-0.1,0c0,0-0.1,0-0.1-0.1
	c-0.1-0.1-0.2-0.1-0.3-0.2l-0.1,0c0,0-0.1,0-0.1-0.1c-0.1-0.1-0.2-0.1-0.4-0.2l-0.1,0c-0.3,0.2-0.6,0.4-1,0.5
	c-0.2,0.1-0.4,0.2-0.5,0.2l0,0c-0.2,0.1-0.3,0.1-0.5,0.2l-0.1,0c-0.1,0-0.3,0.1-0.4,0.1l-0.1,0c-0.2,0-0.3,0.1-0.5,0.1l-0.1,0
	c-0.1,0-0.3,0-0.4,0l-0.2,0c-0.4,0-0.7,0-1.1,0c-0.1,0-0.1,0-0.2,0c-0.1,0-0.3,0-0.4,0l-0.1,0c-0.2,0-0.4-0.1-0.5-0.1l-0.1,0
	c-0.1,0-0.3-0.1-0.4-0.1l-0.1,0C28,40.3,27.8,40.3,27.6,40.2L27.6,40.2z"/>
<path class="st1" d="M83,37.6c0.1,0,0.3,0,0.4,0c1.3,0,2.4-0.6,3.1-1.7c0.5-0.8,0.7-1.8,0.5-2.8v0c-0.2-0.9-0.8-1.7-1.6-2.3
	L45.6,0.6c0,0,0,0-0.1,0c-1.2-0.8-2.8-0.8-3.9,0c0,0,0,0-0.1,0L1.7,30.9c-0.8,0.5-1.4,1.3-1.6,2.3c-0.2,1,0,1.9,0.5,2.8
	c0.7,1.1,1.8,1.7,3.1,1.7c0.1,0,0.2,0,0.4,0l0.3,0v48.8H1.1v1.7H86v-1.7h-3.2V37.6L83,37.6z M38.2,86.4h-6.7V61.9h-1.7v24.6h-6.7
	V50.2h-1.7v17.4h-2.9V50c0-0.2,0-0.3,0-0.5l0-0.2c0-0.1,0-0.2,0-0.3l0-0.2c0-0.1,0-0.1,0-0.2c0,0,0-0.1,0-0.1l0-0.1
	c0-0.1,0-0.2,0-0.3c0-0.1,0-0.1,0-0.2l0-0.1c0-0.1,0-0.1,0-0.2c0-0.1,0-0.1,0-0.2c0-0.1,0-0.2,0.1-0.3l0.1-0.2c0-0.1,0-0.1,0.1-0.2
	c0-0.1,0-0.1,0-0.2l0-0.1c0-0.1,0-0.1,0.1-0.2c0-0.1,0-0.1,0.1-0.2c0-0.1,0.1-0.2,0.1-0.2c0-0.1,0-0.1,0.1-0.2
	c0-0.1,0.1-0.2,0.1-0.2l0.1-0.2c0-0.1,0.1-0.1,0.1-0.2c0-0.1,0.1-0.1,0.1-0.2c0-0.1,0.1-0.1,0.1-0.2c0-0.1,0.1-0.1,0.1-0.2
	c0-0.1,0.1-0.1,0.1-0.2c0-0.1,0.1-0.1,0.1-0.2c0-0.1,0.1-0.1,0.1-0.2l0.1-0.2c0-0.1,0.1-0.1,0.1-0.2c0-0.1,0.1-0.1,0.1-0.2
	c0-0.1,0.1-0.1,0.1-0.2c0-0.1,0.1-0.1,0.1-0.2c0-0.1,0.1-0.1,0.1-0.2c0-0.1,0.1-0.1,0.1-0.2c0-0.1,0.1-0.1,0.2-0.2l0,0
	c0,0,0.1-0.1,0.1-0.1c0-0.1,0.1-0.1,0.1-0.2c0.1-0.1,0.1-0.1,0.2-0.2c0-0.1,0.1-0.1,0.1-0.2l0.2-0.2c0-0.1,0.1-0.1,0.1-0.1l0.1-0.1
	c0,0,0.1-0.1,0.1-0.1c0,0,0.1-0.1,0.1-0.1l0.1-0.1c0,0,0.1-0.1,0.1-0.1c0,0,0.1-0.1,0.1-0.1l0.1-0.1c0,0,0.1-0.1,0.1-0.1
	c0.1,0,0.1-0.1,0.2-0.1l0.1-0.1c0,0,0.1-0.1,0.1-0.1c0.1-0.1,0.1-0.1,0.2-0.2l0,0c0.1-0.1,0.2-0.1,0.3-0.2l0,0
	c0.1,0,0.1-0.1,0.2-0.1c0,0,0.1-0.1,0.1-0.1l0.1-0.1c0,0,0.1-0.1,0.1-0.1c0.1,0,0.1-0.1,0.2-0.1l0.1-0.1c0,0,0.1-0.1,0.1-0.1
	c0.1,0,0.1-0.1,0.2-0.1l0.1-0.1c0,0,0.1,0,0.1-0.1c0.1,0,0.1-0.1,0.2-0.1l0.1,0c0,0,0.1,0,0.1-0.1c0.1,0,0.1-0.1,0.2-0.1l0.3-0.1
	l0.1,0.1c0.3,0.2,0.7,0.4,1,0.6c0.2,0.1,0.3,0.2,0.5,0.2l-0.1,0.3l0.1-0.3c0.2,0.1,0.3,0.1,0.5,0.2l0.1,0c0.1,0,0.3,0.1,0.4,0.1
	l0.1,0c0.2,0,0.3,0.1,0.5,0.1l0.1,0c0.1,0,0.3,0,0.4,0c0,0,0.1,0,0.1,0c0.3,0,0.7,0,1,0l0.1,0c0.1,0,0.3,0,0.4,0l0.1,0
	c0.2,0,0.3-0.1,0.5-0.1l0.1,0c0.1,0,0.3-0.1,0.4-0.1l0.1,0c0.2-0.1,0.3-0.1,0.5-0.2l0.1,0.2l0,0l-0.1-0.3c0.2-0.1,0.3-0.1,0.5-0.2
	c0.4-0.2,0.7-0.4,1-0.6l0.1-0.1l0.1,0.1c0.1,0,0.1,0,0.1,0.1l0.1,0c0.1,0.1,0.3,0.1,0.4,0.2c0,0,0.1,0,0.1,0.1l0.1,0
	c0.1,0.1,0.2,0.1,0.3,0.2c0,0,0.1,0.1,0.1,0.1l0.1,0c0.1,0.1,0.2,0.1,0.3,0.2c0.1,0,0.1,0.1,0.2,0.1l0,0c0.1,0.1,0.2,0.1,0.3,0.2
	c0.1,0,0.1,0.1,0.2,0.1l0,0c0.1,0.1,0.2,0.1,0.3,0.2c0.1,0,0.1,0.1,0.2,0.1c0.1,0.1,0.2,0.1,0.3,0.2c0.1,0.1,0.1,0.1,0.2,0.2
	c0.1,0.1,0.2,0.2,0.3,0.2c0.1,0.1,0.1,0.1,0.2,0.2c0.1,0.1,0.2,0.2,0.3,0.3c0.1,0.1,0.1,0.1,0.2,0.2c0.1,0.1,0.2,0.2,0.2,0.3l0,0
	c0,0,0.1,0.1,0.1,0.1c0.1,0.1,0.2,0.2,0.2,0.3l0,0c0,0.1,0.1,0.1,0.1,0.2c0.1,0.1,0.2,0.2,0.2,0.3l0,0.1c0,0,0.1,0.1,0.1,0.1
	c0.1,0.1,0.2,0.2,0.2,0.3l0,0.1c0,0,0.1,0.1,0.1,0.1c0.1,0.1,0.2,0.3,0.2,0.4l0.1,0.1c0,0.1,0.1,0.1,0.1,0.2l0.1,0.3l-0.2,0.1
	c-1.4,1.1-2.3,2.8-2.3,4.6c0,1.2,0.4,2.4,1.1,3.4l0.2,0.3L40,53.2c-3.1,1.7-5,5-5,8.5v12.7c0,0.5,0.4,0.8,0.8,0.8h2.3V86.4z
	 M24.6,34.1l0-0.1c0-0.1,0-0.1-0.1-0.2c0-0.1,0-0.1,0-0.2c0-0.1,0-0.1,0-0.2c0-0.1,0-0.1,0-0.2c0-0.1,0-0.1,0-0.2c0-0.1,0-0.1,0-0.2
	c0-0.1,0-0.1,0-0.2c0-0.1,0-0.1,0-0.2l0-0.1c0-0.1,0-0.2,0-0.4c0-3.5,2.9-6.4,6.4-6.4c3.5,0,6.4,2.9,6.4,6.4c0,0.1,0,0.2,0,0.4
	l0,0.1c0,0.1,0,0.1,0,0.2c0,0,0,0.1,0,0.1l0,0c0,0.1,0,0.1,0,0.2c0,0.1,0,0.1,0,0.2c0,0.1,0,0.1,0,0.2c0,0.1,0,0.1,0,0.2l0,0.1
	c0,0.1,0,0.2-0.1,0.2l0,0.1c-0.1,0.3-0.2,0.5-0.3,0.8l0,0.1c0,0.1-0.1,0.1-0.1,0.2l-0.1,0.1c0,0.1-0.1,0.1-0.1,0.1
	c0,0.1-0.1,0.1-0.1,0.2L36,35.6c-0.1,0.1-0.1,0.2-0.2,0.2l0,0c-0.4,0.5-0.8,0.9-1.3,1.3l0,0c-0.6,0.4-1.2,0.8-1.8,1l0,0
	c-0.2,0.1-0.3,0.1-0.5,0.1l0,0c-0.1,0-0.3,0.1-0.4,0.1l-0.1,0c-0.1,0-0.3,0-0.4,0.1l-0.1,0c-0.2,0-0.3,0-0.5,0c-0.2,0-0.3,0-0.5,0
	l-0.1,0c-0.2,0-0.3,0-0.5-0.1l0,0c-0.2,0-0.3-0.1-0.5-0.1l0,0c-0.2,0-0.3-0.1-0.5-0.1l0,0c-0.6-0.2-1.2-0.5-1.8-0.9l0,0l0,0
	c-0.5-0.4-0.9-0.8-1.3-1.3l0,0c-0.1-0.1-0.1-0.2-0.2-0.2l-0.1-0.1c0-0.1-0.1-0.1-0.1-0.2c0,0-0.1-0.1-0.1-0.1c0,0,0-0.1-0.1-0.1
	l0-0.1c0,0,0-0.1-0.1-0.1l0-0.1C24.7,34.6,24.6,34.4,24.6,34.1z M42.9,45.7L42.9,45.7c0.2-0.1,0.3-0.2,0.5-0.2l0.1,0
	c0.1,0,0.2-0.1,0.2-0.1l0,0c0.3-0.1,0.6-0.1,0.9-0.1c0.7,0,1.4,0.1,2,0.4c0.1,0.1,0.2,0.1,0.3,0.1l0,0c0.1,0.1,0.3,0.2,0.4,0.3
	c1.1,0.8,1.7,2,1.7,3.3c0,1.3-0.6,2.5-1.6,3.3c-0.7,0.6-1.6,0.8-2.5,0.8c-0.9,0-1.8-0.3-2.5-0.8c-1-0.8-1.6-2-1.6-3.3
	C40.7,47.8,41.5,46.4,42.9,45.7z M49,61.9v12.5c0,0.3,0.2,0.7,0.5,0.8l0.2,0.1v11.3h-4.1V71.3H44v15.2h-4.1V75.2l0.2-0.1
	c0.3-0.1,0.6-0.4,0.6-0.8V61.9h-1.7v11.6h-2.2V61.7c0-3.2,1.9-6.1,4.8-7.3l0.1-0.1l0.1,0.1c0.9,0.5,1.9,0.8,3,0.8s2.1-0.3,3-0.8
	l0.1-0.1l0.1,0.1c2.9,1.3,4.8,4.2,4.8,7.3v11.8h-2.2V61.9H49z M62.7,37.3L62.7,37.3C62.7,37.3,62.7,37.3,62.7,37.3l-0.3,0l0,0
	L62.7,37.3L62.7,37.3c0,0.2-0.1,0.4-0.1,0.6l0,0.1c0,0.2-0.1,0.4-0.1,0.5c-0.1,0.4-0.3,0.7-0.4,1l0,0c-0.1,0.1-0.2,0.3-0.3,0.4
	l0,0.1c-0.1,0.1-0.2,0.3-0.3,0.4c0,0.1-0.1,0.1-0.1,0.1c-0.1,0.1-0.1,0.1-0.2,0.2c-0.2,0.2-0.4,0.4-0.7,0.6l0,0
	c-0.4,0.3-0.9,0.6-1.4,0.8l0,0c-0.1,0-0.1,0-0.2,0.1c-0.1,0-0.1,0-0.2,0.1l0,0c-0.1,0-0.2,0.1-0.3,0.1c-0.1,0-0.1,0-0.2,0
	c-0.1,0-0.2,0-0.4,0.1l0,0c0,0-0.1,0-0.1,0c-0.2,0-0.4,0-0.5,0c-0.2,0-0.3,0-0.5,0c0,0-0.1,0-0.1,0l-0.1,0c-0.1,0-0.2,0-0.4-0.1
	c-0.1,0-0.1,0-0.2,0c-0.1,0-0.2-0.1-0.3-0.1l0,0c0,0-0.1,0-0.1,0c-0.1,0-0.2-0.1-0.3-0.1c-0.3-0.1-0.7-0.3-1-0.5l-0.1,0
	c-0.1-0.1-0.2-0.2-0.3-0.2l-0.1,0c-0.2-0.2-0.5-0.4-0.7-0.6c-0.1-0.1-0.1-0.1-0.2-0.2c0,0-0.1-0.1-0.1-0.1c-0.1-0.1-0.2-0.2-0.3-0.3
	l-0.1-0.1c-0.1-0.1-0.2-0.3-0.3-0.4l0,0c-0.2-0.3-0.3-0.7-0.4-1c-0.1-0.2-0.1-0.4-0.1-0.5l0-0.1c0-0.2-0.1-0.3-0.1-0.5l0,0
	c0-0.2,0-0.4,0-0.6c0-3.2,2.6-5.8,5.8-5.8c3.2,0,5.8,2.6,5.8,5.8C62.7,36.9,62.7,37.1,62.7,37.3L62.7,37.3z M51.7,43.5
	c0.1,0,0.2-0.1,0.3-0.1c0.1-0.1,0.2-0.1,0.3-0.2l0,0c0.1,0,0.2-0.1,0.3-0.1l0.2-0.1l0.1,0.1c0.3,0.2,0.6,0.4,0.9,0.5l0,0
	c0.2,0.1,0.3,0.1,0.4,0.2L54.2,44l0.1-0.3c0.1,0.1,0.3,0.1,0.4,0.1l0.1,0c0.1,0,0.2,0.1,0.3,0.1l0.1,0c0.1,0,0.3,0.1,0.4,0.1l0.1,0
	c0.1,0,0.2,0,0.4,0c0,0,0.1,0,0.1,0c0.3,0,0.6,0,1,0l0.1,0c0.1,0,0.2,0,0.4,0l0.1,0c0.2,0,0.3,0,0.5-0.1l0.1,0
	c0.1,0,0.2-0.1,0.4-0.1l0.1,0c0.3-0.1,0.6-0.2,0.9-0.4c0.3-0.2,0.6-0.3,0.9-0.5l0.1-0.1l0.2,0.1c0.3,0.1,0.5,0.2,0.7,0.3l0,0
	c0.3,0.1,0.5,0.3,0.7,0.4c0.5,0.3,0.9,0.6,1.3,0.9l0,0c0.2,0.2,0.4,0.3,0.6,0.5l0,0c0.2,0.2,0.3,0.3,0.5,0.5l0,0.1
	c0.2,0.2,0.3,0.4,0.5,0.6l0.1,0.1c0.1,0.2,0.3,0.4,0.4,0.6l0.1,0.1c0.1,0.2,0.3,0.4,0.4,0.6l0,0.1c0.1,0.2,0.2,0.4,0.3,0.6l0,0.1
	c0.1,0.2,0.2,0.4,0.3,0.7l0,0.1c0.1,0.2,0.2,0.5,0.2,0.7l0,0.1c0.1,0.2,0.1,0.5,0.2,0.7l0,0.1c0.1,0.2,0.1,0.5,0.1,0.7l0,0
	c0,0.3,0.1,0.5,0.1,0.8l0,0c0,0.3,0,0.5,0,0.8v12h-2.5V53.3h-1.7v6.3h-9.5l-0.1-0.2c-0.6-2.6-2.3-4.8-4.7-6.1l-0.3-0.2l0.2-0.3
	c0.7-1,1.1-2.2,1.1-3.4c0-1.4-0.5-2.7-1.4-3.7l-0.2-0.2l0.2-0.2c0.1-0.1,0.1-0.1,0.2-0.2c0.1,0,0.1-0.1,0.2-0.1l0.1,0
	c0.1-0.1,0.2-0.2,0.3-0.3c0.1-0.1,0.2-0.1,0.2-0.2c0.1-0.1,0.2-0.2,0.3-0.2c0.1-0.1,0.2-0.1,0.2-0.2c0.1-0.1,0.2-0.1,0.3-0.2
	c0.1-0.1,0.2-0.1,0.3-0.2C51.5,43.6,51.6,43.5,51.7,43.5z M54.5,61.6C54.5,61.6,54.5,61.5,54.5,61.6l0-0.4h9.3v4.7
	c0,0.5,0.4,0.8,0.8,0.8h0.5l2.1,11.1H51.4v-2.7h2.3c0.5,0,0.8-0.4,0.8-0.8L54.5,61.6C54.5,61.6,54.5,61.6,54.5,61.6z M56.1,86.4
	h-4.7v-6.9h4.7V86.4z M62.4,86.4h-4.7v-6.9h4.7V86.4z M81.1,86.4h-17v-6.9h4.2c0.2,0,0.5-0.1,0.6-0.3c0.2-0.2,0.2-0.4,0.2-0.7
	l-2.3-11.8h2c0.5,0,0.8-0.4,0.8-0.8V53.1c0-0.2,0-0.3,0-0.5l0-0.2c0-0.1,0-0.2,0-0.3l0-0.2c0-0.1,0-0.2,0-0.3c0-0.1,0-0.1,0-0.2
	c0-0.1,0-0.2,0-0.3l0-0.2c0-0.1,0-0.2,0-0.3c0-0.1,0-0.1,0-0.2c0-0.1,0-0.2-0.1-0.3l0,0c0-0.1,0-0.1,0-0.2c0-0.1,0-0.2-0.1-0.3
	l0-0.2c0-0.1-0.1-0.2-0.1-0.3l0-0.1c0-0.1-0.1-0.3-0.1-0.4l-0.1-0.1c0-0.1-0.1-0.2-0.1-0.3l-0.1-0.2c0-0.1-0.1-0.2-0.1-0.2
	c0-0.1-0.1-0.1-0.1-0.2c0-0.1-0.1-0.2-0.1-0.2l-0.1-0.2c0-0.1-0.1-0.1-0.1-0.2c0-0.1-0.1-0.1-0.1-0.2c0-0.1-0.1-0.1-0.1-0.2
	c0-0.1-0.1-0.1-0.1-0.2c0-0.1-0.1-0.1-0.1-0.2l0,0c0,0-0.1-0.1-0.1-0.1c0-0.1-0.1-0.1-0.1-0.2l0-0.1c0,0,0-0.1-0.1-0.1
	c-0.1-0.1-0.2-0.2-0.2-0.3c0,0-0.1-0.1-0.1-0.1l0-0.1c0-0.1-0.1-0.1-0.1-0.2c0,0-0.1-0.1-0.1-0.1l-0.1-0.1c0-0.1-0.1-0.1-0.1-0.2
	c0-0.1-0.1-0.1-0.1-0.1c-0.1-0.1-0.1-0.1-0.2-0.2c-0.1-0.1-0.1-0.1-0.2-0.2c-0.1-0.1-0.1-0.1-0.2-0.2c-0.1-0.1-0.1-0.1-0.2-0.2
	c-0.1-0.1-0.1-0.1-0.2-0.2c-0.1-0.1-0.1-0.1-0.2-0.2c-0.1,0-0.1-0.1-0.2-0.1l0,0c0,0-0.1-0.1-0.1-0.1c0,0-0.1-0.1-0.1-0.1l-0.1-0.1
	c0,0-0.1-0.1-0.1-0.1c-0.1,0-0.1-0.1-0.2-0.1l0,0c-0.1-0.1-0.2-0.1-0.3-0.2l0,0c-0.1,0-0.1-0.1-0.2-0.1c0,0-0.1-0.1-0.1-0.1l-0.1,0
	c-0.1,0-0.1-0.1-0.2-0.1c-0.1,0-0.1-0.1-0.2-0.1l0,0c-0.1,0-0.1-0.1-0.2-0.1C63,42,63,42,62.9,42l-0.4-0.2l0.2-0.3
	c0.1-0.1,0.2-0.3,0.3-0.4l0,0c0,0,0.1-0.1,0.1-0.1c0.1-0.1,0.2-0.2,0.2-0.4c0-0.1,0.1-0.1,0.1-0.2c0.1-0.1,0.1-0.2,0.2-0.4
	c0-0.1,0.1-0.1,0.1-0.2c0-0.1,0.1-0.2,0.1-0.3c0-0.1,0.1-0.2,0.1-0.3c0-0.1,0.1-0.2,0.1-0.4l0-0.1c0,0,0-0.1,0-0.1
	c0-0.2,0.1-0.3,0.1-0.5c0-0.1,0-0.1,0-0.2c0-0.2,0.1-0.4,0.1-0.5l0-0.1c0-0.2,0-0.4,0-0.6c0-4.1-3.3-7.5-7.5-7.5
	c-4.1,0-7.5,3.3-7.5,7.5c0,0.2,0,0.4,0,0.6l0,0.1c0,0.2,0,0.3,0.1,0.5c0,0.1,0,0.1,0,0.2c0,0.2,0.1,0.3,0.1,0.5c0,0,0,0.1,0,0.1
	l0,0.1c0,0.1,0.1,0.2,0.1,0.3c0,0.1,0.1,0.2,0.1,0.3c0,0.1,0.1,0.2,0.1,0.3c0,0.1,0.1,0.2,0.1,0.2c0.1,0.1,0.1,0.2,0.2,0.4
	c0,0.1,0.1,0.1,0.1,0.2c0.1,0.1,0.2,0.3,0.2,0.4c0,0,0,0.1,0.1,0.1l0,0c0.1,0.1,0.2,0.3,0.3,0.4l0.2,0.3l-0.3,0.2
	c-0.2,0.1-0.5,0.2-0.7,0.4c-0.2,0.1-0.5,0.3-0.7,0.4c0,0-0.1,0.1-0.1,0.1l-0.2,0.1c-0.1,0.1-0.2,0.2-0.4,0.3c-0.1,0-0.1,0.1-0.1,0.1
	l-0.2,0.2c-0.1,0.1-0.2,0.1-0.2,0.2l-0.1,0.1l-0.1,0c-0.3,0-0.5,0.1-0.7,0.3l-0.1,0.2l-0.2-0.1c-0.1-0.1-0.3-0.1-0.4-0.2l0.1-0.3
	l-0.1,0.3c-1-0.3-2-0.4-3.1-0.2c-0.2,0-0.3,0.1-0.5,0.1l-0.2,0.1l-0.1-0.2c0,0,0-0.1-0.1-0.1l-0.1-0.2c-0.2-0.4-0.4-0.7-0.7-1.1
	l-0.1-0.1c-0.1-0.1-0.2-0.3-0.3-0.4l-0.1-0.1c-0.1-0.2-0.2-0.3-0.4-0.5l0.2-0.2L41,41c-0.1-0.2-0.3-0.3-0.4-0.5l-0.1-0.1
	c-0.1-0.1-0.2-0.2-0.3-0.3L40,40c-0.1-0.1-0.3-0.3-0.4-0.4l-0.1-0.1c-0.2-0.1-0.3-0.3-0.5-0.4l-0.1-0.1c-0.1-0.1-0.3-0.2-0.4-0.3
	l-0.2-0.1c-0.1-0.1-0.3-0.2-0.4-0.3l-0.1-0.1c-0.2-0.1-0.4-0.2-0.6-0.3L37,37.9c-0.1,0-0.1-0.1-0.2-0.1l-0.3-0.2l0.3-0.3
	c0,0,0.1-0.1,0.1-0.1c0.1-0.1,0.1-0.1,0.1-0.2l0.1-0.1c0.1-0.1,0.1-0.2,0.2-0.3c0.6-0.9,1-1.8,1.2-2.9l0,0c0-0.1,0-0.2,0.1-0.3
	l0-0.1c0-0.1,0-0.2,0-0.3l0-0.1c0-0.1,0-0.2,0-0.3l0-0.1c0-0.1,0-0.3,0-0.4c0-4.4-3.6-8.1-8.1-8.1c-4.4,0-8.1,3.6-8.1,8.1
	c0,0.1,0,0.3,0,0.4l0,0.1c0,0.1,0,0.2,0,0.3l0,0.1c0,0.1,0,0.2,0,0.3l0,0.1c0,0.1,0,0.2,0.1,0.3l0,0.1c0.2,1,0.6,2,1.2,2.9
	c0.1,0.1,0.1,0.2,0.2,0.3l0,0.1c0.1,0.1,0.1,0.1,0.2,0.2c0,0,0.1,0.1,0.1,0.1l0.2,0.3l-0.3,0.2c-0.1,0-0.1,0.1-0.2,0.1L24,38
	c-0.1,0.1-0.3,0.2-0.4,0.3L23.4,38l0,0l0.1,0.2c-0.1,0.1-0.3,0.2-0.4,0.3L23,38.6c-0.1,0.1-0.2,0.1-0.3,0.2l-0.2,0.1
	c-0.1,0.1-0.2,0.1-0.2,0.2l-0.2,0.1c-0.1,0.1-0.2,0.1-0.2,0.2c-0.1,0-0.1,0.1-0.2,0.1c-0.1,0.1-0.2,0.1-0.2,0.2
	c-0.1,0-0.1,0.1-0.2,0.1c-0.1,0.1-0.1,0.1-0.2,0.2L21,40.2c-0.1,0.1-0.1,0.1-0.2,0.2l-0.1,0.1c-0.1,0.1-0.2,0.2-0.2,0.3l-0.1,0.1
	c-0.1,0.1-0.2,0.2-0.3,0.4c-0.1,0.1-0.2,0.3-0.3,0.4l-0.1,0.1c-0.1,0.1-0.1,0.2-0.2,0.3l-0.1,0.2c-0.1,0.1-0.1,0.2-0.2,0.3
	c0,0.1-0.1,0.1-0.1,0.2c-0.1,0.1-0.1,0.2-0.2,0.3c0,0.1-0.1,0.1-0.1,0.2c0,0.1-0.1,0.2-0.1,0.3l-0.1,0.2c0,0.1-0.1,0.2-0.1,0.3
	c0,0.1-0.1,0.1-0.1,0.2c0,0.1-0.1,0.2-0.1,0.3l-0.1,0.2c0,0.1-0.1,0.2-0.1,0.3l-0.1,0.1c-0.1,0.2-0.1,0.3-0.2,0.5
	c-0.1,0.2-0.1,0.3-0.2,0.5l0,0.2c0,0.1-0.1,0.2-0.1,0.3l-0.1,0.2c0,0.1-0.1,0.2-0.1,0.3c0,0.1,0,0.1,0,0.2c0,0.1,0,0.2-0.1,0.3
	c0,0.1,0,0.1,0,0.2c0,0.1,0,0.2-0.1,0.3c0,0.1,0,0.1,0,0.2c0,0.1,0,0.2,0,0.3c0,0.1,0,0.1,0,0.2c0,0.1,0,0.2,0,0.3l0,0.2
	c0,0.1,0,0.2,0,0.3l0,0.2c0,0.2,0,0.3,0,0.5v18.4c0,0.5,0.4,0.8,0.8,0.8h3.7v17.1H6V36.8l0.1-0.1L43.5,8l37.5,28.7V86.4z M82.4,35.7
	L82.4,35.7L44,6.3c-0.3-0.2-0.7-0.2-1,0L4.7,35.7l0,0C3.8,36.2,2.5,36,2,35.1c-0.3-0.4-0.4-1-0.3-1.5c0.1-0.5,0.4-1,0.9-1.2
	c0,0,0,0,0.1,0L42.5,1.9c0.6-0.4,1.4-0.4,2.1,0l0,0l39.8,30.3c0,0,0,0,0.1,0c0.4,0.3,0.8,0.7,0.9,1.2c0.1,0.5,0,1.1-0.3,1.5
	c-0.4,0.6-1,0.9-1.7,0.9C83.1,36,82.7,35.9,82.4,35.7z"/>
<polygon points="52.1,39.4 52.1,39.4 52.1,39.4 "/>
<polygon class="st2" points="62.4,37.3 62.7,37.3 62.7,37.3 62.4,37.3 "/>
</svg>
