<?xml version="1.0" encoding="utf-8"?>
<!-- Generator: Adobe Illustrator 23.0.2, SVG Export Plug-In . SVG Version: 6.00 Build 0)  -->
<svg version="1.1" id="Elements" xmlns="http://www.w3.org/2000/svg" xmlns:xlink="http://www.w3.org/1999/xlink" x="0px" y="0px"
	 viewBox="0 0 63 88.8" style="enable-background:new 0 0 63 88.8;" xml:space="preserve">
<style type="text/css">
	.st0{fill:#2117DC;}
</style>
<g>
	<path class="st0" d="M7.6,19.1v-7.3c0-0.1,0.1-0.2,0.2-0.3c0.1-0.1,0.2-0.1,0.4-0.1h2.3c0.8,0,1.4,0.2,1.9,0.6
		c0.5,0.4,0.7,1.1,0.7,1.9v0.1c0,0.9-0.2,1.5-0.7,1.9c-0.5,0.4-1.1,0.6-1.9,0.6H9.1v2.6c0,0.1-0.1,0.3-0.2,0.3
		c-0.1,0.1-0.3,0.1-0.5,0.1c-0.2,0-0.4,0-0.5-0.1C7.7,19.3,7.6,19.2,7.6,19.1z M9.1,15.3h1.3c0.4,0,0.7-0.1,0.9-0.3
		c0.2-0.2,0.3-0.5,0.3-1v-0.1c0-0.4-0.1-0.8-0.3-1c-0.2-0.2-0.5-0.3-0.9-0.3H9.1V15.3z"/>
	<path class="st0" d="M12.7,18.9c0,0,0-0.1,0-0.1l2.2-7.1c0-0.1,0.2-0.3,0.3-0.3c0.2-0.1,0.4-0.1,0.6-0.1c0.2,0,0.4,0,0.6,0.1
		c0.2,0.1,0.3,0.2,0.3,0.4l2.2,7.1c0,0.1,0,0.1,0,0.1c0,0.2-0.1,0.3-0.3,0.4c-0.2,0.1-0.4,0.2-0.6,0.2c-0.3,0-0.4-0.1-0.5-0.3
		l-0.4-1.5h-2.4l-0.4,1.5c-0.1,0.2-0.2,0.3-0.6,0.3c-0.2,0-0.5-0.1-0.7-0.2C12.8,19.2,12.7,19.1,12.7,18.9z M15.1,16.6h2l-1-3.5
		L15.1,16.6z"/>
	<path class="st0" d="M19.5,18.2c0-0.2,0.1-0.3,0.2-0.5c0.1-0.2,0.3-0.3,0.4-0.3c0.1,0,0.2,0,0.3,0.1c0.1,0.1,0.2,0.2,0.4,0.3
		c0.1,0.1,0.3,0.2,0.5,0.3c0.2,0.1,0.5,0.1,0.7,0.1c0.4,0,0.7-0.1,0.9-0.2c0.2-0.2,0.4-0.4,0.4-0.7c0-0.2-0.1-0.4-0.2-0.6
		c-0.1-0.2-0.3-0.3-0.5-0.4c-0.2-0.1-0.4-0.2-0.7-0.3c-0.3-0.1-0.5-0.2-0.8-0.4c-0.3-0.1-0.5-0.3-0.7-0.5c-0.2-0.2-0.4-0.4-0.5-0.7
		c-0.1-0.3-0.2-0.6-0.2-1c0-0.4,0.1-0.8,0.2-1.1c0.2-0.3,0.4-0.5,0.6-0.7c0.3-0.2,0.6-0.3,0.9-0.4c0.3-0.1,0.6-0.1,1-0.1
		c0.2,0,0.4,0,0.6,0c0.2,0,0.4,0.1,0.7,0.1c0.2,0.1,0.4,0.2,0.6,0.3c0.2,0.1,0.2,0.3,0.2,0.5c0,0.2-0.1,0.3-0.2,0.5
		c-0.1,0.2-0.2,0.3-0.4,0.3c-0.1,0-0.3-0.1-0.6-0.2c-0.3-0.1-0.6-0.2-1-0.2c-0.4,0-0.7,0.1-0.9,0.2c-0.2,0.2-0.3,0.4-0.3,0.6
		c0,0.2,0.1,0.4,0.3,0.6c0.2,0.2,0.4,0.3,0.7,0.4c0.3,0.1,0.6,0.2,0.9,0.4c0.3,0.2,0.6,0.3,0.9,0.5c0.3,0.2,0.5,0.4,0.7,0.8
		c0.2,0.3,0.3,0.7,0.3,1.2c0,0.8-0.2,1.4-0.7,1.8c-0.5,0.4-1.1,0.6-1.9,0.6c-0.7,0-1.3-0.1-1.8-0.4C19.8,18.9,19.5,18.6,19.5,18.2z"
		/>
	<path class="st0" d="M25.4,18.2c0-0.2,0.1-0.3,0.2-0.5c0.1-0.2,0.3-0.3,0.4-0.3c0.1,0,0.2,0,0.3,0.1c0.1,0.1,0.2,0.2,0.4,0.3
		c0.1,0.1,0.3,0.2,0.5,0.3c0.2,0.1,0.5,0.1,0.7,0.1c0.4,0,0.7-0.1,0.9-0.2c0.2-0.2,0.4-0.4,0.4-0.7c0-0.2-0.1-0.4-0.2-0.6
		c-0.1-0.2-0.3-0.3-0.5-0.4c-0.2-0.1-0.4-0.2-0.7-0.3c-0.3-0.1-0.5-0.2-0.8-0.4c-0.3-0.1-0.5-0.3-0.7-0.5c-0.2-0.2-0.4-0.4-0.5-0.7
		c-0.1-0.3-0.2-0.6-0.2-1c0-0.4,0.1-0.8,0.2-1.1c0.2-0.3,0.4-0.5,0.6-0.7c0.3-0.2,0.6-0.3,0.9-0.4c0.3-0.1,0.6-0.1,1-0.1
		c0.2,0,0.4,0,0.6,0c0.2,0,0.4,0.1,0.7,0.1c0.2,0.1,0.4,0.2,0.6,0.3c0.2,0.1,0.2,0.3,0.2,0.5c0,0.2-0.1,0.3-0.2,0.5
		c-0.1,0.2-0.2,0.3-0.4,0.3c-0.1,0-0.3-0.1-0.6-0.2c-0.3-0.1-0.6-0.2-1-0.2c-0.4,0-0.7,0.1-0.9,0.2c-0.2,0.2-0.3,0.4-0.3,0.6
		c0,0.2,0.1,0.4,0.3,0.6c0.2,0.2,0.4,0.3,0.7,0.4c0.3,0.1,0.6,0.2,0.9,0.4c0.3,0.2,0.6,0.3,0.9,0.5c0.3,0.2,0.5,0.4,0.7,0.8
		c0.2,0.3,0.3,0.7,0.3,1.2c0,0.8-0.2,1.4-0.7,1.8c-0.5,0.4-1.1,0.6-1.9,0.6c-0.7,0-1.3-0.1-1.8-0.4C25.7,18.9,25.4,18.6,25.4,18.2z"
		/>
	<path class="st0" d="M31.7,19.1v-7.3c0-0.1,0.1-0.2,0.2-0.3c0.1-0.1,0.2-0.1,0.4-0.1h2.3c0.8,0,1.4,0.2,1.9,0.6
		c0.5,0.4,0.7,1.1,0.7,1.9v0.1c0,0.9-0.2,1.5-0.7,1.9c-0.5,0.4-1.1,0.6-1.9,0.6h-1.3v2.6c0,0.1-0.1,0.3-0.2,0.3
		c-0.1,0.1-0.3,0.1-0.5,0.1c-0.2,0-0.4,0-0.5-0.1C31.8,19.3,31.7,19.2,31.7,19.1z M33.2,15.3h1.3c0.4,0,0.7-0.1,0.9-0.3
		c0.2-0.2,0.3-0.5,0.3-1v-0.1c0-0.4-0.1-0.8-0.3-1c-0.2-0.2-0.5-0.3-0.9-0.3h-1.3V15.3z"/>
	<path class="st0" d="M37.9,17v-3.1c0-0.9,0.2-1.5,0.7-2c0.5-0.4,1.1-0.6,1.9-0.6c0.8,0,1.4,0.2,1.9,0.6c0.5,0.4,0.7,1.1,0.7,2V17
		c0,0.9-0.2,1.5-0.7,2c-0.5,0.4-1.1,0.6-1.9,0.6c-0.8,0-1.4-0.2-1.9-0.6C38.2,18.6,37.9,17.9,37.9,17z M39.4,17
		c0,0.9,0.4,1.3,1.2,1.3c0.8,0,1.2-0.4,1.2-1.3v-3.1c0-0.9-0.4-1.3-1.2-1.3c-0.8,0-1.2,0.4-1.2,1.3V17z"/>
	<path class="st0" d="M44.5,19.1v-7.3c0-0.1,0-0.2,0.1-0.3c0.1-0.1,0.2-0.1,0.3-0.1h2.2c1.8,0,2.7,0.8,2.7,2.4
		c0,0.6-0.1,1.1-0.4,1.5c-0.3,0.4-0.6,0.6-1.1,0.8l1.5,2.7c0,0,0.1,0.1,0.1,0.2c0,0.2-0.1,0.4-0.3,0.5c-0.2,0.2-0.4,0.2-0.6,0.2
		c-0.2,0-0.4-0.1-0.5-0.3l-1.6-3.1h-0.9v2.9c0,0.1-0.1,0.3-0.2,0.3c-0.1,0.1-0.3,0.1-0.5,0.1c-0.2,0-0.4,0-0.5-0.1
		C44.5,19.3,44.5,19.2,44.5,19.1z M45.9,15h1.2c0.8,0,1.2-0.4,1.2-1.2c0-0.8-0.4-1.2-1.2-1.2h-1.2V15z"/>
	<path class="st0" d="M50.3,11.9c0-0.2,0-0.3,0.1-0.4c0.1-0.1,0.2-0.2,0.3-0.2h4.8c0.2,0,0.3,0.1,0.3,0.2c0.1,0.1,0.1,0.3,0.1,0.4
		c0,0.2,0,0.3-0.1,0.5c-0.1,0.1-0.2,0.2-0.3,0.2h-1.6v6.5c0,0.1-0.1,0.3-0.2,0.3c-0.1,0.1-0.3,0.1-0.5,0.1c-0.2,0-0.4,0-0.5-0.1
		c-0.1-0.1-0.2-0.2-0.2-0.3v-6.5h-1.7c-0.1,0-0.3-0.1-0.3-0.2C50.3,12.2,50.3,12.1,50.3,11.9z"/>
</g>
<path class="st0" d="M55.7,88.8H0.9c-0.5,0-0.9-0.4-0.9-0.9v-87C0,0.4,0.4,0,0.9,0h54.8c4,0,7.3,3.3,7.3,7.3v74.1
	C63,85.5,59.7,88.8,55.7,88.8z M1.8,87h53.9c3.1,0,5.6-2.5,5.6-5.6V7.3c0-3.1-2.5-5.6-5.6-5.6H1.8V87z"/>
<g>
	<path class="st0" d="M31.5,64.2c-9.4,0-17-7.6-17-17c0-9.4,7.6-17,17-17s17,7.6,17,17C48.5,56.5,40.9,64.2,31.5,64.2z M31.5,31.9
		c-8.4,0-15.2,6.8-15.2,15.2c0,8.4,6.8,15.2,15.2,15.2s15.2-6.8,15.2-15.2C46.7,38.8,39.9,31.9,31.5,31.9z"/>
	<path class="st0" d="M47.6,48.1H15.4c-0.5,0-0.9-0.4-0.9-0.9c0-0.5,0.4-0.9,0.9-0.9h32.2c0.5,0,0.9,0.4,0.9,0.9
		C48.5,47.7,48.1,48.1,47.6,48.1z"/>
	<path class="st0" d="M45.5,56.1H17.5c-0.5,0-0.9-0.4-0.9-0.9s0.4-0.9,0.9-0.9h27.9c0.5,0,0.9,0.4,0.9,0.9S46,56.1,45.5,56.1z"/>
	<path class="st0" d="M45.5,40H17.5c-0.5,0-0.9-0.4-0.9-0.9s0.4-0.9,0.9-0.9h27.9c0.5,0,0.9,0.4,0.9,0.9S46,40,45.5,40z"/>
	<path class="st0" d="M31.5,64.2c-6.7,0-9.7-8.8-9.7-17c0-4.4,0.8-8.4,2.3-11.5c1.8-3.6,4.3-5.5,7.4-5.5c6.7,0,9.7,8.8,9.7,17
		S38.2,64.2,31.5,64.2z M31.5,31.9c-5.2,0-8,7.7-8,15.2s2.7,15.2,8,15.2c3,0,4.8-2.5,5.8-4.5c1.4-2.8,2.1-6.6,2.1-10.7
		C39.5,39.6,36.7,31.9,31.5,31.9z"/>
	<path class="st0" d="M31.5,64.2c-0.5,0-0.9-0.4-0.9-0.9V31c0-0.5,0.4-0.9,0.9-0.9c0.5,0,0.9,0.4,0.9,0.9v32.2
		C32.4,63.8,32,64.2,31.5,64.2z"/>
</g>
<path class="st0" d="M43.2,75.9H19.8c-0.5,0-0.9-0.4-0.9-0.9c0-0.5,0.4-0.9,0.9-0.9h23.4c0.5,0,0.9,0.4,0.9,0.9
	C44.1,75.5,43.7,75.9,43.2,75.9z"/>
<path class="st0" d="M37.5,81.4h-12c-0.5,0-0.9-0.4-0.9-0.9c0-0.5,0.4-0.9,0.9-0.9h12c0.5,0,0.9,0.4,0.9,0.9
	C38.4,81,38,81.4,37.5,81.4z"/>
</svg>
