<?xml version="1.0" encoding="utf-8"?>
<!-- Generator: Adobe Illustrator 23.0.2, SVG Export Plug-In . SVG Version: 6.00 Build 0)  -->
<svg version="1.1" id="Text" xmlns="http://www.w3.org/2000/svg" xmlns:xlink="http://www.w3.org/1999/xlink" x="0px" y="0px"
	 viewBox="0 0 139.5 92" style="enable-background:new 0 0 139.5 92;" xml:space="preserve">
<style type="text/css">
	.st0{fill:#2117DC;}
</style>
<rect x="102.8" y="8.1" transform="matrix(0.2588 -0.9659 0.9659 0.2588 71.2455 111.758)" class="st0" width="11.3" height="2.8"/>
<rect x="118.7" y="16.9" transform="matrix(0.7071 -0.7071 0.7071 0.7071 23.4782 93.2651)" class="st0" width="11.3" height="2.8"/>
<path class="st0" d="M86.9,25.4c-3.4,0-6.7,0.5-9.9,1.5l-0.5,0.2V14.3l-1.6-1.6h-9.4V1.6L63.9,0H10.3L8.8,1.6V14l1.6,1.6h9.4v10
	h-9.4l-1.6,1.6v12.4l1.6,1.6h7.2v10h-7.2l-1.6,1.6v11.2H1.6L0,65.3v12.4l1.6,1.6h7.2v11.2l1.6,1.6h53.6l1.6-1.6v-6l0.6,0.5
	c6,4.6,13.2,7.1,20.8,7.1c9,0,17.5-3.5,23.9-9.8c6.4-6.3,9.9-14.7,9.9-23.6C120.6,40.4,105.5,25.4,86.9,25.4z M64.1,15.5v3.9h2.8
	v-3.9h6.8v10H22.5v-10h6.2v3.9h2.8v-3.9h6.1v3.9h2.8v-3.9h6.1v3.9h2.8v-3.9h6.1v3.9H58v-3.9H64.1z M11.5,12.8v-10h6.2v3.9h2.8V2.8
	h6.1v3.9h2.8V2.8h6.1v3.9h2.8V2.8h6.1v3.9h2.8V2.8h6.1v3.9h2.8V2.8h6.8v10H11.5z M11.5,38.3v-10h6.2v3.9h2.8v-3.9h6.1v3.9h2.8v-3.9
	h6.1v3.9h2.8v-3.9h6.1v3.9h2.8v-3.9h6.1v3.9h2.8v-3.9h17.2L71.6,29c-4.3,2.2-8.2,5.3-11.2,9.1l-0.1,0.1H11.5z M29.3,44.9V41h6.1v3.9
	h2.8V41h6.1v3.9H47V41h11.3l-0.4,0.6c-1.7,2.8-3,5.9-3.8,9.1L54,51H20.3V41h6.2v3.9H29.3z M11.5,53.8h6.2v3.9h2.8v-3.9h6.1v3.9h2.8
	v-3.9h6.1v3.9h2.8v-3.9h6.1v3.9h2.8v-3.9h6.4l-0.1,0.5c-0.2,1.5-0.3,3-0.3,4.5c0,1.5,0.1,3,0.3,4.6l0.1,0.5h-42V53.8z M2.8,76.5v-10
	H9v3.9h2.8v-3.9h6.1v3.9h2.8v-3.9h6.1v3.9h2.8v-3.9h6.1v3.9h2.8v-3.9h6.1v3.9h2.8v-3.9H54l0.1,0.3c0.8,3.2,2.1,6.2,3.8,9.1l0.4,0.6
	H2.8z M62.7,89.3H11.5v-10h6.2v3.9h2.8v-3.9h6.1v3.9h2.8v-3.9h6.1v3.9h2.8v-3.9h6.1v3.9h2.8v-3.9h6.1v3.9h2.8v-3.9h4.4l0.1,0.1
	c0.7,0.8,1.4,1.6,2.1,2.4l0.1,0.1V89.3z M108.8,80.3c-5.9,5.8-13.6,9-21.9,9s-16.1-3.2-21.9-9c-5.8-5.8-9.1-13.4-9.1-21.6
	c0-16.8,13.9-30.5,31-30.5s31,13.7,31,30.5C117.8,66.9,114.6,74.5,108.8,80.3z"/>
<rect x="128" y="32.5" transform="matrix(0.9659 -0.2588 0.2588 0.9659 -4.2153 35.7458)" class="st0" width="11.3" height="2.8"/>
<path class="st0" d="M95.7,48l-3,3l-0.3-0.2c-3.3-2.3-7.7-2.3-11.1,0.1L81.1,51l-2.9-2.9l-2,2l2.9,2.9l-0.2,0.3
	c-1.2,1.7-1.8,3.6-1.8,5.6c0,1.9,0.6,3.8,1.6,5.3l0.2,0.3l-3,3l2,2l2.9-2.9l0.3,0.2c3.3,2.3,7.7,2.4,11.1,0.1l0.3-0.2l2.9,2.9l2-2
	l-2.9-2.9l0.2-0.3c1.2-1.7,1.9-3.7,1.9-5.7c0-2-0.6-3.9-1.7-5.5l-0.2-0.3l3-2.9L95.7,48z M91.7,63.6c-1.4,1.4-3.2,2.1-5,2.1
	c-1.8,0-3.5-0.7-4.8-2c-1.3-1.3-2-3-2-4.8c0-1.9,0.7-3.6,2.1-5c2.7-2.7,7.1-2.8,9.8-0.1c1.3,1.3,2,3,2,4.8
	C93.8,60.5,93.1,62.3,91.7,63.6z"/>
</svg>
