<?xml version="1.0" encoding="utf-8"?>
<!-- Generator: Adobe Illustrator 23.0.2, SVG Export Plug-In . SVG Version: 6.00 Build 0)  -->
<svg version="1.1" id="Elements" xmlns="http://www.w3.org/2000/svg" xmlns:xlink="http://www.w3.org/1999/xlink" x="0px" y="0px"
	 viewBox="0 0 86.9 90.4" style="enable-background:new 0 0 86.9 90.4;" xml:space="preserve">
<style type="text/css">
	.st0{fill:#2117DC;}
</style>
<g>
	<path class="st0" d="M36.4,70.1c-0.5,0-0.9-0.3-1-0.8c0-0.2-0.3-2.1,0.8-3.4c0.4-0.5,1.1-1,2.4-1c0.4,0,0.7,0.2,0.9,0.6
		c0.7,1.6,1.1,1.9,2.4,2.1c0.5-0.7,1.5-1.9,3.2-1.9c1.7,0,2.7,1.1,3.2,1.9c3.2-0.9,5.9,0,6,0.1c0.5,0.2,0.8,0.7,0.6,1.2
		c-0.2,0.5-0.7,0.8-1.2,0.6c0,0-2.6-0.9-5.5,0.2c-0.5,0.2-1.1-0.1-1.2-0.6c0-0.1-0.6-1.5-1.8-1.5c-1.2,0-1.8,1.3-1.8,1.3
		c-0.2,0.4-0.6,0.6-1,0.6c-2.4-0.2-3.4-0.8-4.3-2.6c-0.2,0.1-0.3,0.2-0.4,0.3c-0.4,0.5-0.4,1.5-0.4,1.9c0.1,0.5-0.3,1-0.8,1.1
		C36.4,70.1,36.4,70.1,36.4,70.1z"/>
	<path class="st0" d="M62.5,82.7H8.6c-0.5,0-1-0.4-1-1V1c0-0.5,0.4-1,1-1h53.8c0.5,0,1,0.4,1,1v80.8C63.5,82.3,63,82.7,62.5,82.7z
		 M9.6,80.8h51.9V1.9H9.6V80.8z"/>
	<path class="st0" d="M54.8,90.4H1c-0.5,0-1-0.4-1-1V8.6c0-0.5,0.4-1,1-1h7.7c0.5,0,1,0.4,1,1s-0.4,1-1,1H1.9v78.8h51.9v-6.7
		c0-0.5,0.4-1,1-1c0.5,0,1,0.4,1,1v7.7C55.8,89.9,55.4,90.4,54.8,90.4z"/>
	<g>
		<path class="st0" d="M76.7,82.6c-0.4,0-0.7-0.2-0.8-0.5l-3-5.3c-0.7-1.2-1.1-2.6-1.1-4V14.2c0-0.5,0.4-1,1-1h7.9c0.5,0,1,0.4,1,1
			v58.6c0,1.4-0.4,2.8-1.1,4l-3,5.3C77.4,82.4,77,82.6,76.7,82.6z M73.7,15.1v57.6c0,1.1,0.3,2.1,0.8,3.1l2.2,3.8l2.2-3.8
			c0.5-0.9,0.8-2,0.8-3.1V15.1H73.7z"/>
		<path class="st0" d="M80.6,69.5h-7.9c-0.5,0-1-0.4-1-1s0.4-1,1-1h7.9c0.5,0,1,0.4,1,1S81.2,69.5,80.6,69.5z"/>
		<path class="st0" d="M85.9,37.5c-0.5,0-1-0.4-1-1V23.1H72.7c-0.5,0-1-0.4-1-1c0-0.5,0.4-1,1-1h13.1c0.5,0,1,0.4,1,1v14.4
			C86.9,37.1,86.4,37.5,85.9,37.5z"/>
		<path class="st0" d="M76.7,85c-0.5,0-1-0.4-1-1v-2.4c0-0.5,0.4-1,1-1s1,0.4,1,1V84C77.7,84.6,77.2,85,76.7,85z"/>
	</g>
	<path class="st0" d="M54,12.3H17.1c-0.5,0-1-0.4-1-1s0.4-1,1-1H54c0.5,0,1,0.4,1,1S54.5,12.3,54,12.3z"/>
	<path class="st0" d="M54,23.5H17.1c-0.5,0-1-0.4-1-1c0-0.5,0.4-1,1-1H54c0.5,0,1,0.4,1,1C55,23.1,54.5,23.5,54,23.5z"/>
	<path class="st0" d="M54,30.9H17.1c-0.5,0-1-0.4-1-1c0-0.5,0.4-1,1-1H54c0.5,0,1,0.4,1,1C55,30.5,54.5,30.9,54,30.9z"/>
	<path class="st0" d="M54,38.3H17.1c-0.5,0-1-0.4-1-1c0-0.5,0.4-1,1-1H54c0.5,0,1,0.4,1,1C55,37.9,54.5,38.3,54,38.3z"/>
	<path class="st0" d="M54,45.7H17.1c-0.5,0-1-0.4-1-1s0.4-1,1-1H54c0.5,0,1,0.4,1,1S54.5,45.7,54,45.7z"/>
	<path class="st0" d="M54,53.1H17.1c-0.5,0-1-0.4-1-1s0.4-1,1-1H54c0.5,0,1,0.4,1,1S54.5,53.1,54,53.1z"/>
	<path class="st0" d="M54,75.4H36.3c-0.5,0-1-0.4-1-1s0.4-1,1-1H54c0.5,0,1,0.4,1,1S54.5,75.4,54,75.4z"/>
	<path class="st0" d="M23.3,75.4c-3.9,0-7.1-3.2-7.1-7.1s3.2-7.1,7.1-7.1s7.1,3.2,7.1,7.1S27.2,75.4,23.3,75.4z M23.3,63.2
		c-2.8,0-5.1,2.3-5.1,5.1c0,2.8,2.3,5.1,5.1,5.1s5.1-2.3,5.1-5.1C28.4,65.5,26.1,63.2,23.3,63.2z"/>
</g>
</svg>
