<?xml version="1.0" encoding="utf-8"?>
<!-- Generator: Adobe Illustrator 23.0.2, SVG Export Plug-In . SVG Version: 6.00 Build 0)  -->
<svg version="1.1" id="Text" xmlns="http://www.w3.org/2000/svg" xmlns:xlink="http://www.w3.org/1999/xlink" x="0px" y="0px"
	 viewBox="0 0 64.8 91.7" style="enable-background:new 0 0 64.8 91.7;" xml:space="preserve">
<style type="text/css">
	.st0{fill:#2117DC;}
</style>
<g>
	<path class="st0" d="M50.5,5.5c-0.2-0.1-0.4-0.2-0.6-0.2c-0.1,0-0.1,0-0.2,0c-0.3,0.1-0.5,0.2-0.7,0.5c-0.3,0.5-0.2,1.2,0.3,1.5
		c8.4,5.6,13.4,15,13.4,25.1V54c0,0.6,0.5,1.1,1.1,1.1s1.1-0.5,1.1-1.1V32.4C64.8,21.6,59.5,11.6,50.5,5.5z"/>
	<path class="st0" d="M1.1,33.5c0.6,0,1.1-0.5,1.1-1.1c0-16.7,13.6-30.3,30.3-30.3c3.6,0,7.1,0.6,10.5,1.9c0.3,0.1,0.6,0.1,0.8,0
		c0.3-0.1,0.5-0.3,0.6-0.6c0.1-0.3,0.1-0.6,0-0.8c-0.1-0.3-0.3-0.5-0.6-0.6C40,0.7,36.3,0,32.4,0C14.5,0,0,14.5,0,32.4
		C0,33,0.5,33.5,1.1,33.5z"/>
	<path class="st0" d="M63.7,60.9c-4.3,0-7.8-3.5-7.8-7.8V32.4c0-0.6-0.5-1.1-1.1-1.1c-0.6,0-1.1,0.5-1.1,1.1v20.7
		c0,5.5,4.4,9.9,9.9,9.9c0.6,0,1.1-0.5,1.1-1.1C64.7,61.4,64.2,60.9,63.7,60.9z"/>
	<path class="st0" d="M1.1,42.8c5.5,0,10-4.5,10-10v-0.4c0-11.8,9.6-21.3,21.3-21.3c9.1,0,17.2,5.8,20.1,14.3
		c0.2,0.6,0.8,0.9,1.4,0.7c0.3-0.1,0.5-0.3,0.6-0.5c0.1-0.3,0.1-0.5,0-0.8C51.3,15.3,42.4,9,32.4,9C19.5,9,9,19.5,9,32.4v0.4
		c0,4.3-3.5,7.9-7.9,7.9c-0.6,0-1.1,0.5-1.1,1.1C0,42.3,0.5,42.8,1.1,42.8z"/>
	<path class="st0" d="M61.4,70.2c-8,0-14.5-6.5-14.5-14.5V32.4c0-8-6.5-14.5-14.5-14.5c-0.6,0-1.1,0.5-1.1,1.1s0.5,1.1,1.1,1.1
		c6.8,0,12.4,5.5,12.4,12.4v23.3c0,9.2,7.5,16.6,16.6,16.6c0.6,0,1.1-0.5,1.1-1.1C62.5,70.6,62,70.2,61.4,70.2z"/>
	<path class="st0" d="M1.1,52c10.5,0,19-8.5,19-19v-0.6c0-3.9,1.8-7.5,4.9-9.9c0.2-0.2,0.4-0.4,0.4-0.7c0-0.3,0-0.6-0.2-0.8
		c-0.2-0.2-0.4-0.4-0.7-0.4c0,0-0.1,0-0.1,0c-0.2,0-0.5,0.1-0.6,0.2c-3.7,2.8-5.7,7-5.7,11.6V33c0,9.3-7.6,16.8-16.8,16.8
		c-0.6,0-1.1,0.5-1.1,1.1C0,51.5,0.5,52,1.1,52z"/>
	<path class="st0" d="M21.8,50.7c-0.2-0.2-0.5-0.3-0.7-0.3c-0.3,0-0.6,0.1-0.8,0.4c-4.9,5.4-11.9,8.5-19.2,8.5
		c-0.6,0-1.1,0.5-1.1,1.1c0,0.6,0.5,1.1,1.1,1.1c7.9,0,15.5-3.4,20.8-9.2c0.2-0.2,0.3-0.5,0.3-0.8C22.1,51.2,22,50.9,21.8,50.7z"/>
	<path class="st0" d="M32.4,26.9c-3.1,0-5.5,2.5-5.5,5.5v1.1c0,4-0.9,7.9-2.7,11.5c-0.3,0.5,0,1.2,0.5,1.4c0.1,0.1,0.3,0.1,0.5,0.1
		c0.4,0,0.8-0.2,1-0.6C28,42.1,29,37.9,29,33.6v-1.1c0-1.9,1.5-3.4,3.4-3.4c1.9,0,3.4,1.5,3.4,3.4c0,19.7-14.2,35.1-33.1,36
		c-0.6,0-1,0.5-1,1.1c0,0.6,0.5,1,1.1,1l0.1,0C22.9,69.6,38,53.2,38,32.4C38,29.4,35.5,26.9,32.4,26.9z"/>
	<path class="st0" d="M55.8,79.5c-8.6-2.9-15.2-10.2-17.2-19c-0.1-0.3-0.2-0.5-0.5-0.7c-0.2-0.2-0.5-0.2-0.8-0.1
		c-0.3,0.1-0.5,0.2-0.7,0.5l-0.1,0.1c-6.9,9.6-17,16-28.6,17.9c-0.6,0.1-1,0.7-0.9,1.2c0.1,0.5,0.5,0.9,1.1,0.9c0.1,0,0.1,0,0.2,0
		c11.2-1.9,21.3-7.9,28.4-16.8l0.3-0.4l0.2,0.5C40,72,46.7,78.7,55.1,81.5c0.1,0,0.2,0.1,0.3,0.1c0.5,0,0.9-0.3,1-0.7
		C56.7,80.3,56.4,79.7,55.8,79.5z"/>
	<path class="st0" d="M47.8,85.9c-4.3-2.2-8.1-5.3-11.1-9.1l-0.1-0.1c0,0,0,0,0,0c0,0-0.1,0-0.1-0.1l-0.1-0.1c0,0-0.1-0.1-0.1-0.1
		c0,0-0.1,0-0.1,0l-0.1,0c0,0-0.1,0-0.1,0c0,0-0.1,0-0.1,0c-0.1,0-0.1,0-0.2,0l-0.1,0c0,0-0.1,0-0.1,0c0,0,0,0,0,0
		c-0.1,0-0.2,0.1-0.3,0.1c0,0-0.1,0-0.1,0.1l0,0l-0.1,0C30,80.9,24.3,84.2,18,86.3c-0.3,0.1-0.5,0.3-0.6,0.5
		c-0.1,0.3-0.1,0.5-0.1,0.8c0.1,0.4,0.6,0.7,1,0.7c0.1,0,0.2,0,0.3-0.1c6.1-2,11.7-5.2,16.9-9.3l0.2-0.2l0.2,0.2
		c3.1,3.6,6.8,6.6,11,8.7c0.2,0.1,0.3,0.1,0.5,0.1c0.4,0,0.8-0.2,1-0.6C48.6,86.8,48.4,86.2,47.8,85.9z"/>
	<path class="st0" d="M35,87.8l-3.2,1.9c-0.2,0.1-0.4,0.4-0.5,0.7c-0.1,0.3,0,0.6,0.1,0.8c0.2,0.3,0.5,0.5,0.9,0.5
		c0.2,0,0.4-0.1,0.5-0.2l3.2-1.9c0.2-0.1,0.4-0.4,0.5-0.7c0.1-0.3,0-0.6-0.1-0.8C36.2,87.7,35.5,87.5,35,87.8z"/>
</g>
</svg>
